<mxfile host="app.diagrams.net" agent="Mozilla/5.0 (Windows NT 10.0; Win64; x64) AppleWebKit/537.36 (KHTML, like Gecko) Chrome/128.0.0.0 Safari/537.36" version="24.7.8">
  <diagram name="Page-1" id="NzEvNj97Y3_Pp3std26Q">
    <mxGraphModel dx="1050" dy="522" grid="1" gridSize="10" guides="1" tooltips="1" connect="1" arrows="1" fold="1" page="1" pageScale="1" pageWidth="850" pageHeight="1100" math="0" shadow="0">
      <root>
        <mxCell id="0" />
        <mxCell id="1" parent="0" />
        <mxCell id="DqWH_0BMPUarjxs3VFlZ-3" style="edgeStyle=orthogonalEdgeStyle;rounded=0;orthogonalLoop=1;jettySize=auto;html=1;exitX=0.5;exitY=0.5;exitDx=0;exitDy=0;exitPerimeter=0;" edge="1" parent="1" source="DqWH_0BMPUarjxs3VFlZ-1" target="DqWH_0BMPUarjxs3VFlZ-2">
          <mxGeometry relative="1" as="geometry" />
        </mxCell>
        <mxCell id="DqWH_0BMPUarjxs3VFlZ-11" style="edgeStyle=orthogonalEdgeStyle;rounded=0;orthogonalLoop=1;jettySize=auto;html=1;exitX=1;exitY=1;exitDx=0;exitDy=0;exitPerimeter=0;" edge="1" parent="1" source="DqWH_0BMPUarjxs3VFlZ-1" target="DqWH_0BMPUarjxs3VFlZ-9">
          <mxGeometry relative="1" as="geometry" />
        </mxCell>
        <mxCell id="DqWH_0BMPUarjxs3VFlZ-1" value="User" style="shape=umlActor;verticalLabelPosition=bottom;verticalAlign=top;html=1;outlineConnect=0;" vertex="1" parent="1">
          <mxGeometry x="100" y="220" width="40" height="70" as="geometry" />
        </mxCell>
        <mxCell id="DqWH_0BMPUarjxs3VFlZ-2" value="Upload CSV File&amp;nbsp;" style="ellipse;whiteSpace=wrap;html=1;" vertex="1" parent="1">
          <mxGeometry x="270" y="210" width="120" height="80" as="geometry" />
        </mxCell>
        <mxCell id="DqWH_0BMPUarjxs3VFlZ-8" style="edgeStyle=orthogonalEdgeStyle;rounded=0;orthogonalLoop=1;jettySize=auto;html=1;entryX=0.5;entryY=0;entryDx=0;entryDy=0;" edge="1" parent="1" source="DqWH_0BMPUarjxs3VFlZ-4" target="DqWH_0BMPUarjxs3VFlZ-6">
          <mxGeometry relative="1" as="geometry" />
        </mxCell>
        <mxCell id="DqWH_0BMPUarjxs3VFlZ-4" value="start compressing images" style="ellipse;whiteSpace=wrap;html=1;" vertex="1" parent="1">
          <mxGeometry x="450" y="120" width="120" height="70" as="geometry" />
        </mxCell>
        <mxCell id="DqWH_0BMPUarjxs3VFlZ-5" style="edgeStyle=orthogonalEdgeStyle;rounded=0;orthogonalLoop=1;jettySize=auto;html=1;entryX=0;entryY=0.625;entryDx=0;entryDy=0;entryPerimeter=0;" edge="1" parent="1" source="DqWH_0BMPUarjxs3VFlZ-2" target="DqWH_0BMPUarjxs3VFlZ-4">
          <mxGeometry relative="1" as="geometry" />
        </mxCell>
        <mxCell id="DqWH_0BMPUarjxs3VFlZ-14" style="edgeStyle=orthogonalEdgeStyle;rounded=0;orthogonalLoop=1;jettySize=auto;html=1;" edge="1" parent="1" source="DqWH_0BMPUarjxs3VFlZ-6" target="DqWH_0BMPUarjxs3VFlZ-15">
          <mxGeometry relative="1" as="geometry">
            <mxPoint x="525" y="460" as="targetPoint" />
          </mxGeometry>
        </mxCell>
        <mxCell id="DqWH_0BMPUarjxs3VFlZ-6" value="Uploading compress image on Cloud &amp;amp; storing relevent product information" style="ellipse;whiteSpace=wrap;html=1;" vertex="1" parent="1">
          <mxGeometry x="440" y="280" width="170" height="110" as="geometry" />
        </mxCell>
        <mxCell id="DqWH_0BMPUarjxs3VFlZ-9" value="Status of Processing image" style="ellipse;whiteSpace=wrap;html=1;" vertex="1" parent="1">
          <mxGeometry x="270" y="340" width="120" height="80" as="geometry" />
        </mxCell>
        <mxCell id="DqWH_0BMPUarjxs3VFlZ-15" value="after complition calling webhook endpoint" style="ellipse;whiteSpace=wrap;html=1;" vertex="1" parent="1">
          <mxGeometry x="465" y="420" width="120" height="80" as="geometry" />
        </mxCell>
        <mxCell id="DqWH_0BMPUarjxs3VFlZ-16" value="System" style="text;html=1;align=center;verticalAlign=middle;resizable=0;points=[];autosize=1;strokeColor=none;fillColor=none;" vertex="1" parent="1">
          <mxGeometry x="310" y="28" width="60" height="30" as="geometry" />
        </mxCell>
      </root>
    </mxGraphModel>
  </diagram>
</mxfile>
